# Blender v2.80 (sub 75) OBJ File: 'pista.blend'
# www.blender.org
mtllib pista.mtl
o Plane
v -0.296422 0.000000 1.498094
v 0.296422 0.000000 1.498094
v -0.296422 0.000000 -1.949837
v 0.296422 0.000000 -1.949837
vt 0.284467 0.000000
vt 0.142132 0.607117
vt 0.142132 0.000000
vt 0.284467 0.607117
vn 0.0000 1.0000 0.0000
usemtl Material.001
s off
f 2/1/1 3/2/1 1/3/1
f 2/1/1 4/4/1 3/2/1
o Plane.002
v -0.888039 0.000000 -1.945243
v -0.296039 0.000000 -1.945243
v -0.888039 0.000000 -4.409681
v -0.296039 0.000000 -4.409681
vt 0.426600 0.000000
vt 0.284467 0.437995
vt 0.284467 0.000000
vt 0.426600 0.437995
vn 0.0000 1.0000 0.0000
usemtl Material.001
s off
f 6/5/2 7/6/2 5/7/2
f 6/5/2 8/8/2 7/6/2
o Circle
v 0.296000 1.000466 -2.951503
v 0.296000 1.195556 -2.932927
v 0.296000 1.383149 -2.876821
v 0.296000 1.556036 -2.785353
v 0.296000 1.707573 -2.662037
v 0.296000 1.831936 -2.511594
v 0.296000 1.924345 -2.339768
v 0.296000 1.981251 -2.153111
v 0.296000 2.000466 -1.958728
v 0.296000 0.000466 -1.950263
v 0.296000 0.019681 -2.145332
v 0.296000 0.076587 -2.332927
v 0.296000 0.168997 -2.505843
v 0.296000 0.293360 -2.657448
v 0.296000 0.444897 -2.781939
v 0.296000 0.617784 -2.874567
v 0.296000 0.805377 -2.931809
v -0.296000 1.000466 -2.951503
v -0.296000 1.195556 -2.932927
v -0.296000 1.383149 -2.876821
v -0.296000 1.556036 -2.785353
v -0.296000 1.707573 -2.662037
v -0.296000 1.831936 -2.511594
v -0.296000 1.924345 -2.339768
v -0.296000 1.981251 -2.153111
v -0.296000 2.000466 -1.958728
v -0.296000 0.000466 -1.950263
v -0.296000 0.019681 -2.145332
v -0.296000 0.076587 -2.332927
v -0.296000 0.168997 -2.505843
v -0.296000 0.293360 -2.657448
v -0.296000 0.444897 -2.781939
v -0.296000 0.617784 -2.874567
v -0.296000 0.805377 -2.931809
vt 0.568280 0.409432
vt 0.710413 0.441934
vt 0.568280 0.441934
vt 0.852545 0.298801
vt 0.994677 0.330558
vt 0.852545 0.330558
vt 0.852545 0.265917
vt 0.994677 0.298801
vt 0.852545 0.233160
vt 0.994677 0.265917
vt 1.000000 0.032486
vt 0.857868 0.000000
vt 1.000000 0.000000
vt 0.857868 0.065612
vt 0.857868 0.032486
vt 1.000000 0.098106
vt 1.000000 0.065612
vt 0.568280 0.376317
vt 0.710413 0.409432
vt 0.857868 0.128721
vt 0.857868 0.098106
vt 0.568280 0.343861
vt 0.710413 0.376317
vt 1.000000 0.156285
vt 1.000000 0.128721
vt 0.568280 0.313311
vt 0.710413 0.343861
vt 0.568280 0.472572
vt 0.710413 0.500168
vt 0.568280 0.500168
vt 0.568280 0.285842
vt 0.710413 0.313311
vt 0.710413 0.472572
vt 0.994677 0.359978
vt 0.852545 0.359978
vt 0.994677 0.233160
vt 0.857868 0.156284
vt 0.710413 0.285842
vn 0.0000 0.1004 0.9949
vn 0.0000 -0.8807 0.4737
vn 0.0000 -0.9565 0.2916
vn 0.0000 -0.9952 0.0984
vn 0.0000 0.9952 0.0980
vn 0.0000 0.9569 0.2903
vn 0.0000 0.8820 0.4713
vn 0.0000 -0.0948 0.9955
vn 0.0000 0.7731 0.6342
vn 0.0000 -0.2865 0.9581
vn 0.0000 0.6348 0.7727
vn 0.0000 -0.4676 0.8839
vn 0.0000 0.4723 0.8815
vn 0.0000 -0.6312 0.7756
vn 0.0000 0.2919 0.9565
vn -0.0000 -0.7708 0.6371
vn 0.0000 -0.9951 0.0984
usemtl Material.001
s off
f 9/9/3 42/10/3 25/11/3
f 15/12/4 31/13/4 14/14/4
f 16/15/5 32/16/5 15/12/5
f 17/17/6 33/18/6 16/15/6
f 19/19/7 35/20/7 18/21/7
f 19/19/8 37/22/8 36/23/8
f 21/24/9 37/22/9 20/25/9
f 10/26/10 26/27/10 9/9/10
f 21/24/11 39/28/11 38/29/11
f 11/30/12 27/31/12 10/26/12
f 23/32/13 39/28/13 22/33/13
f 12/34/14 28/35/14 11/30/14
f 24/36/15 40/37/15 23/38/15
f 13/39/16 29/40/16 12/34/16
f 25/11/17 41/41/17 24/36/17
f 14/14/18 30/42/18 13/43/18
f 9/9/3 26/27/3 42/10/3
f 15/12/4 32/16/4 31/13/4
f 16/15/5 33/18/5 32/16/5
f 17/17/19 34/44/19 33/18/19
f 19/19/7 36/23/7 35/20/7
f 19/19/8 20/25/8 37/22/8
f 21/24/9 38/29/9 37/22/9
f 10/26/10 27/31/10 26/27/10
f 21/24/11 22/33/11 39/28/11
f 11/30/12 28/35/12 27/31/12
f 23/32/13 40/45/13 39/28/13
f 12/34/14 29/40/14 28/35/14
f 24/36/15 41/41/15 40/37/15
f 13/39/16 30/46/16 29/40/16
f 25/11/17 42/10/17 41/41/17
f 14/14/18 31/13/18 30/42/18
o Circle.001_Circle.004
v 0.295918 2.000466 -1.958864
v 0.281970 1.981251 -1.750542
v 0.244216 1.924345 -1.562949
v 0.189164 1.831936 -1.390062
v 0.123399 1.707573 -1.238525
v 0.053100 1.556036 -1.114162
v -0.016374 1.383149 -1.021752
v -0.080769 1.195556 -0.964847
v -0.137106 1.000466 -0.945632
v -0.183715 0.805375 -0.964847
v -0.220137 0.617782 -1.021753
v -0.246927 0.444895 -1.114163
v -0.265369 0.293359 -1.238526
v -0.277144 0.168996 -1.390062
v -0.284002 0.076586 -1.562949
v -0.287441 0.019681 -1.750543
v -0.295941 0.000466 -1.945633
v -0.296082 2.000466 -1.958864
v -0.310030 1.981251 -1.750542
v -0.347784 1.924345 -1.562949
v -0.402836 1.831936 -1.390062
v -0.468600 1.707573 -1.238525
v -0.538900 1.556036 -1.114162
v -0.608374 1.383149 -1.021752
v -0.672769 1.195556 -0.964847
v -0.729106 1.000466 -0.945632
v -0.775715 0.805375 -0.964847
v -0.812137 0.617782 -1.021753
v -0.838927 0.444895 -1.114163
v -0.857369 0.293359 -1.238526
v -0.869144 0.168996 -1.390062
v -0.876002 0.076586 -1.562949
v -0.879441 0.019681 -1.750543
v -0.887941 0.000466 -1.945633
vt 0.853819 0.023686
vt 0.716095 0.007114
vt 0.857868 0.000000
vt 0.852185 0.051381
vt 0.712046 0.030800
vt 0.852457 0.082049
vt 0.710413 0.058495
vt 0.854098 0.114539
vt 0.710685 0.089163
vt 0.428152 0.305282
vt 0.568280 0.292919
vt 0.432963 0.323524
vt 0.856621 0.147622
vt 0.712325 0.121652
vt 0.426600 0.281030
vt 0.563469 0.274677
vt 0.857868 0.180131
vt 0.714848 0.154736
vt 0.427211 0.251961
vt 0.561917 0.250425
vt 0.428940 0.219425
vt 0.562528 0.221356
vt 0.430886 0.184859
vt 0.564257 0.188820
vt 0.432367 0.149730
vt 0.566203 0.154254
vt 0.432963 0.115469
vt 0.567684 0.119125
vt 0.432538 0.083420
vt 0.568280 0.084864
vt 0.431219 0.054788
vt 0.567855 0.052815
vt 0.429362 0.030605
vt 0.566536 0.024183
vt 0.716095 0.187245
vt 0.564679 0.000000
vn 0.0000 0.4714 -0.8819
vn 0.0000 0.6344 -0.7730
vn 0.0000 0.7730 -0.6344
vn 0.0000 0.8819 -0.4714
vn 0.0000 -0.9958 -0.0918
vn 0.0000 0.9569 -0.2903
vn 0.0000 -0.9569 -0.2903
vn 0.0000 0.9952 -0.0980
vn 0.0000 -0.8819 -0.4714
vn 0.0000 -0.7730 -0.6344
vn 0.0000 -0.6344 -0.7730
vn 0.0000 -0.4714 -0.8819
vn 0.0000 -0.2903 -0.9569
vn 0.0000 -0.0980 -0.9952
vn 0.0000 0.0980 -0.9952
vn 0.0000 0.2903 -0.9569
usemtl Material.001
s off
f 54/47/20 70/48/20 53/49/20
f 55/50/21 71/51/21 54/47/21
f 56/52/22 72/53/22 55/50/22
f 57/54/23 73/55/23 56/52/23
f 44/56/24 60/57/24 43/58/24
f 58/59/25 74/60/25 57/54/25
f 45/61/26 61/62/26 44/56/26
f 59/63/27 75/64/27 58/59/27
f 46/65/28 62/66/28 45/61/28
f 47/67/29 63/68/29 46/65/29
f 48/69/30 64/70/30 47/67/30
f 49/71/31 65/72/31 48/69/31
f 50/73/32 66/74/32 49/71/32
f 51/75/33 67/76/33 50/73/33
f 52/77/34 68/78/34 51/75/34
f 53/79/35 69/80/35 52/77/35
f 54/47/20 71/51/20 70/48/20
f 55/50/21 72/53/21 71/51/21
f 56/52/22 73/55/22 72/53/22
f 57/54/23 74/60/23 73/55/23
f 44/56/24 61/62/24 60/57/24
f 58/59/25 75/64/25 74/60/25
f 45/61/26 62/66/26 61/62/26
f 59/63/27 76/81/27 75/64/27
f 46/65/28 63/68/28 62/66/28
f 47/67/29 64/70/29 63/68/29
f 48/69/30 65/72/30 64/70/30
f 49/71/31 66/74/31 65/72/31
f 50/73/32 67/76/32 66/74/32
f 51/75/33 68/78/33 67/76/33
f 52/77/34 69/80/34 68/78/34
f 53/79/35 70/82/35 69/80/35
o Plane.001_Plane.003
v -2.180378 0.000000 -5.201874
v -2.180378 0.000000 -4.609874
v -1.088378 0.000000 -5.201874
v -1.088378 0.000000 -4.609874
vt 0.852545 0.187245
vt 0.710413 0.371770
vt 0.710413 0.187245
vt 0.852545 0.371770
vn 0.0000 1.0000 0.0000
usemtl Material.001
s off
f 78/83/36 79/84/36 77/85/36
f 78/83/36 80/86/36 79/84/36
o Plane.003_Plane.004
v -0.296173 0.000000 -4.609405
v -0.888173 0.000000 -5.201405
v -0.888173 0.000000 -4.409405
v -0.296173 0.000000 -4.409405
v -1.088173 0.000000 -4.609405
v -1.088173 0.000000 -5.201405
v -0.888173 0.000000 -4.470659
v -0.749427 0.000000 -4.609405
v -0.888173 0.000000 -4.748151
v -1.026919 0.000000 -4.609405
v -0.877611 0.000000 -4.523755
v -0.847535 0.000000 -4.568767
v -0.898734 0.000000 -4.523755
v -0.802522 0.000000 -4.619967
v -0.847535 0.000000 -4.650043
v -0.802522 0.000000 -4.598844
v -0.898734 0.000000 -4.695055
v -0.928810 0.000000 -4.650043
v -0.877611 0.000000 -4.695055
v -0.973823 0.000000 -4.598844
v -0.928810 0.000000 -4.568767
v -0.973823 0.000000 -4.619967
v -0.481755 0.000000 -5.201405
v -0.296173 0.000000 -5.015822
v -0.410736 0.000000 -5.187278
v -0.350529 0.000000 -5.147049
v -0.310299 0.000000 -5.086842
vt 0.758430 0.582193
vt 0.748674 0.598771
vt 0.725119 0.605638
vt 0.768187 0.598771
vt 0.778994 0.607423
vt 0.768187 0.612505
vt 0.758430 0.639434
vt 0.791742 0.605638
vt 0.900563 0.639434
vt 0.856006 0.505602
vt 0.900563 0.536962
vt 0.710413 0.505602
vt 0.758430 0.505602
vt 0.755895 0.591165
vt 0.737867 0.603853
vt 0.710413 0.605638
vt 0.737867 0.607423
vt 0.748674 0.612505
vt 0.760966 0.591165
vt 0.760966 0.620111
vt 0.758430 0.629083
vt 0.755895 0.620111
vt 0.778994 0.603853
vt 0.900563 0.605638
vt 0.873057 0.507989
vt 0.887512 0.514787
vt 0.897171 0.524961
vn 0.0000 1.0000 0.0000
usemtl Material.001
s off
f 88/87/37 92/88/37 87/89/37
f 95/90/37 97/91/37 98/92/37
f 85/93/37 89/94/37 86/95/37
f 88/87/37 104/96/37 103/97/37
f 84/98/37 81/99/37 88/87/37
f 88/87/37 96/100/37 92/88/37
f 92/88/37 91/101/37 87/89/37
f 87/89/37 83/102/37 88/87/37
f 83/102/37 84/98/37 88/87/37
f 93/103/37 87/89/37 91/101/37
f 93/103/37 91/101/37 92/88/37
f 101/104/37 93/103/37 92/88/37
f 96/100/37 88/87/37 94/105/37
f 101/104/37 92/88/37 95/90/37
f 92/88/37 96/100/37 95/90/37
f 102/106/37 90/107/37 100/108/37
f 100/108/37 101/104/37 98/92/37
f 96/100/37 94/105/37 95/90/37
f 99/109/37 89/94/37 97/91/37
f 101/104/37 95/90/37 98/92/37
f 95/90/37 99/109/37 97/91/37
f 98/92/37 102/106/37 100/108/37
f 85/93/37 90/107/37 89/94/37
f 90/107/37 102/106/37 97/91/37
f 102/106/37 98/92/37 97/91/37
f 97/91/37 89/94/37 90/107/37
f 89/94/37 82/110/37 86/95/37
f 82/110/37 89/94/37 103/97/37
f 89/94/37 99/109/37 94/105/37
f 99/109/37 95/90/37 94/105/37
f 94/105/37 88/87/37 89/94/37
f 88/87/37 81/99/37 104/96/37
f 104/96/37 107/111/37 103/97/37
f 88/87/37 103/97/37 89/94/37
f 107/111/37 106/112/37 105/113/37
f 105/113/37 103/97/37 107/111/37
o Plane.004_Plane.005
v -2.380197 0.000000 -5.202509
v -2.972197 0.000000 -4.610509
v -2.180197 0.000000 -4.610509
v -2.180197 0.000000 -5.202509
v -2.380197 0.000000 -4.410510
v -2.972197 0.000000 -4.410510
v -2.241451 0.000000 -4.610509
v -2.380197 0.000000 -4.749256
v -2.518943 0.000000 -4.610509
v -2.380197 0.000000 -4.471763
v -2.294547 0.000000 -4.621071
v -2.339559 0.000000 -4.651147
v -2.294547 0.000000 -4.599948
v -2.390758 0.000000 -4.696160
v -2.420835 0.000000 -4.651147
v -2.369635 0.000000 -4.696160
v -2.465847 0.000000 -4.599948
v -2.420835 0.000000 -4.569871
v -2.465847 0.000000 -4.621071
v -2.369635 0.000000 -4.524859
v -2.339559 0.000000 -4.569871
v -2.390758 0.000000 -4.524859
v -2.972197 0.000000 -5.016927
v -2.786614 0.000000 -5.202509
v -2.958070 0.000000 -5.087946
v -2.917841 0.000000 -5.148154
v -2.857634 0.000000 -5.188383
vt 0.852545 0.429011
vt 0.862302 0.412433
vt 0.885856 0.405566
vt 0.842788 0.412433
vt 0.831981 0.403781
vt 0.842788 0.398699
vt 0.852545 0.371770
vt 0.819234 0.405566
vt 0.710413 0.371770
vt 0.754969 0.505602
vt 0.710413 0.474242
vt 0.900563 0.505602
vt 0.852545 0.505602
vt 0.855081 0.420039
vt 0.873109 0.407351
vt 0.900563 0.405566
vt 0.873109 0.403781
vt 0.862302 0.398699
vt 0.850009 0.420039
vt 0.850009 0.391093
vt 0.852545 0.382121
vt 0.855081 0.391093
vt 0.831981 0.407351
vt 0.710413 0.405566
vt 0.737918 0.503215
vt 0.723463 0.496417
vt 0.713804 0.486243
vn 0.0000 1.0000 0.0000
usemtl Material.001
s off
f 115/114/38 119/115/38 114/116/38
f 122/117/38 124/118/38 125/119/38
f 112/120/38 116/121/38 113/122/38
f 115/114/38 131/123/38 130/124/38
f 111/125/38 108/126/38 115/114/38
f 115/114/38 123/127/38 119/115/38
f 119/115/38 118/128/38 114/116/38
f 114/116/38 110/129/38 115/114/38
f 110/129/38 111/125/38 115/114/38
f 120/130/38 114/116/38 118/128/38
f 120/130/38 118/128/38 119/115/38
f 128/131/38 120/130/38 119/115/38
f 123/127/38 115/114/38 121/132/38
f 128/131/38 119/115/38 122/117/38
f 119/115/38 123/127/38 122/117/38
f 129/133/38 117/134/38 127/135/38
f 127/135/38 128/131/38 125/119/38
f 123/127/38 121/132/38 122/117/38
f 126/136/38 116/121/38 124/118/38
f 128/131/38 122/117/38 125/119/38
f 122/117/38 126/136/38 124/118/38
f 125/119/38 129/133/38 127/135/38
f 112/120/38 117/134/38 116/121/38
f 117/134/38 129/133/38 124/118/38
f 129/133/38 125/119/38 124/118/38
f 124/118/38 116/121/38 117/134/38
f 116/121/38 109/137/38 113/122/38
f 109/137/38 116/121/38 130/124/38
f 116/121/38 126/136/38 121/132/38
f 126/136/38 122/117/38 121/132/38
f 121/132/38 115/114/38 116/121/38
f 115/114/38 108/126/38 131/123/38
f 131/123/38 134/138/38 130/124/38
f 115/114/38 130/124/38 116/121/38
f 134/138/38 133/139/38 132/140/38
f 132/140/38 130/124/38 134/138/38
o Plane.005_Plane.006
v -2.972367 0.000000 1.502230
v -2.380367 0.000000 1.502230
v -2.972367 0.000000 -4.415649
v -2.380367 0.000000 -4.415649
vt 0.142132 0.000000
vt 0.000000 1.000000
vt 0.000000 0.000000
vt 0.142132 1.000000
vn 0.0000 1.0000 0.0000
usemtl Material.001
s off
f 136/141/39 137/142/39 135/143/39
f 136/141/39 138/144/39 137/142/39
o Plane.006_Plane.007
v -0.296145 0.000000 2.289890
v 0.295855 0.000000 1.697890
v -0.496145 0.000000 1.697890
v -0.496145 0.000000 2.289890
v -0.296145 0.000000 1.497890
v 0.295855 0.000000 1.497890
v -0.434891 0.000000 1.697890
v -0.296145 0.000000 1.836636
v -0.157399 0.000000 1.697890
v -0.296145 0.000000 1.559144
v -0.381795 0.000000 1.708451
v -0.336782 0.000000 1.738528
v -0.381795 0.000000 1.687329
v -0.285583 0.000000 1.783540
v -0.255507 0.000000 1.738528
v -0.306706 0.000000 1.783540
v -0.210494 0.000000 1.687329
v -0.255507 0.000000 1.657252
v -0.210494 0.000000 1.708452
v -0.306706 0.000000 1.612240
v -0.336782 0.000000 1.657252
v -0.285583 0.000000 1.612240
v 0.295855 0.000000 2.104308
v 0.110273 0.000000 2.289890
v 0.281729 0.000000 2.175327
v 0.241500 0.000000 2.235534
v 0.181292 0.000000 2.275764
vt 0.568280 0.576759
vt 0.558524 0.593337
vt 0.534969 0.600204
vt 0.578037 0.593337
vt 0.588844 0.601989
vt 0.578037 0.607071
vt 0.568280 0.634000
vt 0.601592 0.600204
vt 0.710413 0.634000
vt 0.665857 0.500168
vt 0.710413 0.531528
vt 0.520263 0.500168
vt 0.568281 0.500168
vt 0.565745 0.585731
vt 0.547717 0.598419
vt 0.520263 0.600204
vt 0.547717 0.601989
vt 0.558524 0.607071
vt 0.570816 0.585731
vt 0.570816 0.614677
vt 0.568280 0.623649
vt 0.565745 0.614677
vt 0.588844 0.598419
vt 0.710413 0.600204
vt 0.682907 0.502555
vt 0.697362 0.509353
vt 0.707021 0.519527
vn 0.0000 1.0000 0.0000
usemtl Material.001
s off
f 146/145/40 150/146/40 145/147/40
f 153/148/40 155/149/40 156/150/40
f 143/151/40 147/152/40 144/153/40
f 146/145/40 162/154/40 161/155/40
f 142/156/40 139/157/40 146/145/40
f 146/145/40 154/158/40 150/146/40
f 150/146/40 149/159/40 145/147/40
f 145/147/40 141/160/40 146/145/40
f 141/160/40 142/156/40 146/145/40
f 151/161/40 145/147/40 149/159/40
f 151/161/40 149/159/40 159/162/40
f 149/159/40 150/146/40 159/162/40
f 154/158/40 146/145/40 152/163/40
f 159/162/40 150/146/40 153/148/40
f 150/146/40 154/158/40 153/148/40
f 160/164/40 148/165/40 158/166/40
f 158/166/40 159/162/40 156/150/40
f 154/158/40 152/163/40 153/148/40
f 157/167/40 147/152/40 155/149/40
f 159/162/40 153/148/40 156/150/40
f 153/148/40 157/167/40 155/149/40
f 156/150/40 160/164/40 158/166/40
f 143/151/40 148/165/40 147/152/40
f 148/165/40 160/164/40 155/149/40
f 160/164/40 156/150/40 155/149/40
f 155/149/40 147/152/40 148/165/40
f 147/152/40 140/168/40 144/153/40
f 140/168/40 147/152/40 161/155/40
f 147/152/40 157/167/40 152/163/40
f 157/167/40 153/148/40 152/163/40
f 152/163/40 146/145/40 147/152/40
f 146/145/40 139/157/40 162/154/40
f 162/154/40 165/169/40 161/155/40
f 146/145/40 161/155/40 147/152/40
f 165/169/40 164/170/40 163/171/40
f 163/171/40 161/155/40 165/169/40
o Plane.007_Plane.008
v -2.185373 0.000000 1.697936
v -2.185373 0.000000 2.289936
v -0.493795 0.000000 1.697936
v -0.493795 0.000000 2.289936
vt 0.710413 0.285842
vt 0.568280 0.000000
vt 0.710413 0.000000
vt 0.568281 0.285842
vn 0.0000 1.0000 0.0000
usemtl Material.001
s off
f 166/172/41 169/173/41 168/174/41
f 166/172/41 167/175/41 169/173/41
o Plane.008_Plane.009
v -2.973356 0.000000 1.698372
v -2.381356 0.000000 2.290373
v -2.381356 0.000000 1.498373
v -2.973356 0.000000 1.498372
v -2.181356 0.000000 1.698372
v -2.181356 0.000000 2.290373
v -2.381356 0.000000 1.559626
v -2.520102 0.000000 1.698372
v -2.381356 0.000000 1.837119
v -2.242610 0.000000 1.698372
v -2.391917 0.000000 1.612722
v -2.421994 0.000000 1.657735
v -2.370795 0.000000 1.612722
v -2.467006 0.000000 1.708934
v -2.421994 0.000000 1.739010
v -2.467006 0.000000 1.687811
v -2.370795 0.000000 1.784023
v -2.340718 0.000000 1.739010
v -2.391917 0.000000 1.784023
v -2.295706 0.000000 1.687811
v -2.340718 0.000000 1.657735
v -2.295706 0.000000 1.708934
v -2.787774 0.000000 2.290372
v -2.973356 0.000000 2.104790
v -2.858793 0.000000 2.276246
v -2.919000 0.000000 2.236017
v -2.959229 0.000000 2.175809
vt 0.365796 0.471791
vt 0.342242 0.464924
vt 0.332485 0.448345
vt 0.342242 0.478658
vt 0.329949 0.486264
vt 0.322728 0.478658
vt 0.284467 0.471791
vt 0.332485 0.495236
vt 0.284467 0.571827
vt 0.474617 0.540467
vt 0.430061 0.571826
vt 0.474617 0.437995
vt 0.474617 0.471791
vt 0.353049 0.470006
vt 0.335021 0.457318
vt 0.332485 0.437995
vt 0.329949 0.457318
vt 0.322728 0.464924
vt 0.353049 0.473575
vt 0.311921 0.473575
vt 0.299174 0.471791
vt 0.311921 0.470006
vt 0.335021 0.486264
vt 0.332485 0.571827
vt 0.471226 0.552468
vt 0.461567 0.562641
vt 0.447112 0.569439
vn 0.0000 1.0000 0.0000
usemtl Material.001
s off
f 177/176/42 181/177/42 176/178/42
f 184/179/42 186/180/42 187/181/42
f 174/182/42 178/183/42 175/184/42
f 177/176/42 193/185/42 192/186/42
f 173/187/42 170/188/42 177/176/42
f 177/176/42 185/189/42 181/177/42
f 181/177/42 180/190/42 176/178/42
f 176/178/42 172/191/42 177/176/42
f 172/191/42 173/187/42 177/176/42
f 182/192/42 176/178/42 180/190/42
f 182/192/42 180/190/42 181/177/42
f 190/193/42 182/192/42 181/177/42
f 185/189/42 177/176/42 183/194/42
f 190/193/42 181/177/42 184/179/42
f 181/177/42 185/189/42 184/179/42
f 191/195/42 179/196/42 189/197/42
f 189/197/42 190/193/42 187/181/42
f 185/189/42 183/194/42 184/179/42
f 188/198/42 178/183/42 186/180/42
f 190/193/42 184/179/42 187/181/42
f 184/179/42 188/198/42 186/180/42
f 187/181/42 191/195/42 189/197/42
f 174/182/42 179/196/42 178/183/42
f 179/196/42 191/195/42 186/180/42
f 191/195/42 187/181/42 186/180/42
f 186/180/42 178/183/42 179/196/42
f 178/183/42 171/199/42 175/184/42
f 171/199/42 178/183/42 192/186/42
f 178/183/42 188/198/42 183/194/42
f 188/198/42 184/179/42 183/194/42
f 183/194/42 177/176/42 178/183/42
f 177/176/42 170/188/42 193/185/42
f 193/185/42 196/200/42 192/186/42
f 177/176/42 192/186/42 178/183/42
f 196/200/42 195/201/42 194/202/42
f 194/202/42 192/186/42 196/200/42
